<?xml version="1.0" standalone="no"?><!-- Generator: Gravit.io --><svg xmlns="http://www.w3.org/2000/svg" xmlns:xlink="http://www.w3.org/1999/xlink" style="isolation:isolate" viewBox="0 0 32 32" width="32" height="32"><defs><clipPath id="_clipPath_EEXOr4ksIgLW7IzJR5MKtgD4oEHfmIAX"><rect width="32" height="32"/></clipPath></defs><g clip-path="url(#_clipPath_EEXOr4ksIgLW7IzJR5MKtgD4oEHfmIAX)"><path d=" M 6 2 L 6 30 L 26 30 L 26 8 L 20 2 L 6 2 Z " fill="rgb(0,0,0)"/><clipPath id="_clipPath_Cud4rcc3cEn6QHIzHOdpVyRpoafej8IU"><path d=" M 6 2 L 6 30 L 26 30 L 26 8 L 20 2 L 6 2 Z " fill="rgb(0,0,0)"/></clipPath><g clip-path="url(#_clipPath_Cud4rcc3cEn6QHIzHOdpVyRpoafej8IU)"><path d=" M 11.139 4.013 C 10.91 4.055 10.66 4.17 10.314 4.396 C 9.969 4.619 9.265 5.226 8.773 5.721 C 8.628 5.867 8.618 5.874 8.473 5.904 C 8.063 5.987 7.705 6.302 7.567 6.697 C 7.505 6.873 7.486 7.146 7.524 7.322 C 7.539 7.402 7.558 7.563 7.564 7.681 C 7.622 8.813 8.109 9.682 8.966 10.19 L 9.152 10.3 L 9.118 10.394 C 8.881 11.066 8.808 12.068 8.927 13.03 C 8.942 13.141 8.948 13.243 8.94 13.256 C 8.925 13.288 8.641 13.381 8.34 13.453 C 8.12 13.508 7.575 13.599 7.512 13.594 C 7.488 13.592 7.469 13.558 7.453 13.481 C 7.387 13.203 7.209 12.885 6.92 12.537 C 6.754 12.336 6.436 12.013 6.287 11.897 C 6.232 11.854 6.226 11.843 6.243 11.767 C 6.265 11.653 6.226 11.473 6.154 11.359 C 6.082 11.247 5.924 11.144 5.782 11.116 C 5.56 11.07 5.302 11.191 5.179 11.396 C 5.103 11.525 5.085 11.731 5.138 11.872 C 5.223 12.091 5.463 12.26 5.679 12.25 C 5.734 12.246 5.792 12.241 5.807 12.236 C 5.838 12.229 6.003 12.578 6.068 12.793 C 6.124 12.971 6.117 13.145 6.055 13.203 C 6.031 13.225 5.974 13.249 5.929 13.257 C 5.768 13.286 5.535 13.222 4.765 12.932 C 4.609 12.874 4.422 12.809 4.35 12.791 C 4.239 12.761 4.21 12.744 4.143 12.663 C 4.02 12.515 3.928 12.464 3.739 12.448 C 3.597 12.436 3.562 12.441 3.465 12.486 C 3.34 12.54 3.27 12.603 3.19 12.724 C 3.118 12.836 3.096 13.09 3.149 13.211 C 3.278 13.513 3.597 13.654 3.892 13.539 C 3.959 13.512 4.026 13.493 4.035 13.498 C 4.163 13.556 4.424 13.611 4.874 13.674 C 5.521 13.765 5.706 13.822 5.82 13.958 C 5.874 14.021 5.889 14.057 5.884 14.108 C 5.874 14.227 5.762 14.378 5.529 14.579 L 5.309 14.77 L 5.222 14.722 C 5.09 14.648 4.884 14.634 4.741 14.691 C 4.534 14.773 4.399 14.955 4.382 15.177 C 4.371 15.322 4.399 15.428 4.478 15.549 C 4.599 15.732 4.865 15.83 5.093 15.776 C 5.301 15.725 5.501 15.498 5.519 15.292 C 5.522 15.254 5.537 15.229 5.561 15.225 C 5.58 15.218 5.726 15.174 5.883 15.122 C 6.528 14.911 7.011 14.627 7.264 14.309 C 7.323 14.235 7.352 14.211 7.375 14.223 C 7.395 14.231 7.542 14.29 7.706 14.353 C 8.204 14.544 8.725 14.684 9.143 14.736 L 9.294 14.753 L 9.363 14.972 C 9.464 15.292 9.792 16.113 9.956 16.456 C 10.259 17.094 10.641 17.749 10.931 18.132 C 11.531 18.919 12.409 19.562 13.457 19.979 C 14.181 20.264 14.931 20.44 15.867 20.545 C 16.488 20.612 16.983 20.626 17.906 20.601 C 19.001 20.57 19.224 20.573 19.867 20.614 C 20.409 20.65 20.898 20.71 21.178 20.773 L 21.269 20.793 L 21.247 21.202 C 21.224 21.586 21.229 21.857 21.263 22.252 C 21.281 22.467 21.28 22.477 21.244 22.474 C 21.193 22.47 20.868 22.613 20.73 22.701 C 20.44 22.887 20.036 23.262 19.77 23.591 L 19.636 23.754 L 19.501 23.753 C 19.282 23.75 19.114 23.838 18.997 24.015 C 18.937 24.103 18.928 24.139 18.914 24.278 C 18.898 24.462 18.928 24.562 19.045 24.698 C 19.19 24.871 19.461 24.943 19.671 24.863 C 19.787 24.818 19.929 24.696 19.987 24.589 C 20.025 24.521 20.052 24.335 20.046 24.184 C 20.044 24.143 20.076 24.119 20.282 24.019 C 20.619 23.852 20.86 23.802 20.973 23.875 C 21.112 23.966 21.072 24.296 20.836 24.981 C 20.758 25.21 20.662 25.519 20.625 25.665 C 20.612 25.718 20.578 25.768 20.521 25.818 C 20.395 25.928 20.327 26.058 20.316 26.218 C 20.285 26.628 20.711 26.945 21.086 26.792 C 21.408 26.663 21.552 26.285 21.39 25.998 C 21.347 25.922 21.348 25.92 21.39 25.787 C 21.415 25.7 21.456 25.443 21.5 25.068 C 21.537 24.746 21.583 24.431 21.6 24.365 C 21.647 24.196 21.725 24.079 21.815 24.04 C 21.881 24.011 21.899 24.011 21.98 24.04 C 22.102 24.087 22.264 24.217 22.434 24.41 L 22.579 24.571 L 22.527 24.688 C 22.341 25.104 22.714 25.567 23.163 25.475 C 23.39 25.429 23.604 25.195 23.623 24.965 C 23.648 24.681 23.437 24.408 23.151 24.353 L 23.033 24.329 L 22.996 24.212 C 22.836 23.69 22.495 23.063 22.238 22.811 C 22.189 22.762 22.15 22.714 22.151 22.702 C 22.153 22.584 22.852 21.493 22.94 21.466 C 22.974 21.457 23.178 21.59 23.416 21.781 C 23.636 21.957 23.797 22.172 24.038 22.611 C 24.328 23.14 24.496 23.657 24.542 24.18 C 24.674 25.571 23.961 26.912 22.433 28.158 C 22.272 28.288 22.063 28.445 21.971 28.502 C 20.888 29.181 19.408 29.198 17.926 28.553 C 17.155 28.219 16.479 27.738 15.994 27.18 C 15.677 26.818 15.492 26.483 15.4 26.113 C 15.363 25.967 15.362 25.914 15.381 25.694 C 15.424 25.161 15.646 24.753 16.08 24.412 C 16.233 24.291 16.393 24.199 17.071 23.836 C 17.367 23.676 17.588 23.492 17.688 23.317 C 17.762 23.191 17.768 23.171 17.787 22.951 C 17.804 22.75 17.8 22.696 17.764 22.553 C 17.668 22.173 17.496 21.908 17.24 21.756 C 17.07 21.654 16.909 21.608 16.722 21.608 C 15.638 21.615 14.435 22.86 13.969 24.465 C 13.762 25.176 13.719 25.794 13.832 26.396 C 14.008 27.316 14.6 28.238 15.499 28.992 C 16.469 29.805 17.78 30.432 18.938 30.634 C 19.815 30.789 20.822 30.718 21.744 30.437 C 23.016 30.05 24.098 29.308 24.939 28.25 C 26.329 26.498 26.659 24.519 25.935 22.283 C 25.769 21.769 25.438 20.986 25.218 20.587 C 25.092 20.363 24.889 20.077 24.649 19.796 L 24.435 19.542 L 24.694 19.119 C 25.157 18.364 25.257 18.218 25.292 18.237 C 25.436 18.312 25.673 18.404 25.838 18.448 C 26.062 18.508 26.865 18.585 27.092 18.568 L 27.219 18.558 L 27.319 18.672 C 27.537 18.925 27.885 18.951 28.125 18.735 C 28.257 18.616 28.31 18.503 28.314 18.326 C 28.324 18.006 28.118 17.773 27.801 17.744 C 27.603 17.725 27.418 17.8 27.315 17.94 L 27.266 18.003 L 27.125 17.95 C 26.813 17.832 26.531 17.662 26.465 17.55 C 26.411 17.454 26.454 17.33 26.576 17.234 C 26.687 17.146 26.946 17.022 27.428 16.821 C 27.69 16.713 27.947 16.603 27.999 16.575 C 28.084 16.527 28.104 16.525 28.237 16.543 C 28.428 16.567 28.56 16.523 28.697 16.397 C 29.044 16.073 28.871 15.499 28.406 15.424 C 28.255 15.401 28.156 15.417 28.027 15.484 C 27.927 15.534 27.819 15.659 27.779 15.767 C 27.757 15.829 27.735 15.855 27.691 15.87 C 27.59 15.902 27.348 16.048 26.957 16.317 C 26.748 16.458 26.518 16.605 26.445 16.642 C 26.29 16.718 26.12 16.758 26.049 16.734 C 25.972 16.707 25.904 16.605 25.883 16.484 C 25.861 16.366 25.895 15.844 25.927 15.806 C 25.936 15.797 25.976 15.778 26.016 15.765 C 26.425 15.646 26.583 15.171 26.322 14.85 C 26.208 14.708 26.126 14.666 25.928 14.649 C 25.735 14.633 25.666 14.653 25.526 14.766 C 25.413 14.853 25.351 14.96 25.327 15.098 C 25.299 15.254 25.309 15.333 25.38 15.475 L 25.441 15.598 L 25.336 15.776 C 25.024 16.313 24.842 16.797 24.806 17.199 L 24.788 17.405 L 24.6 17.464 C 24.127 17.617 23.595 17.852 23.285 18.047 C 23.195 18.104 23.109 18.158 23.096 18.167 C 23.077 18.18 22.985 18.111 22.798 17.946 C 21.382 16.711 19.891 15.675 18.909 15.239 C 18.498 15.055 17.793 14.831 16.618 14.504 C 15.195 14.11 14.949 14.02 13.968 13.534 C 13.923 13.511 13.923 13.509 14.031 13.413 C 14.321 13.153 14.704 12.692 14.945 12.308 C 15.025 12.18 15.093 12.074 15.097 12.071 C 15.099 12.069 15.158 12.098 15.226 12.138 C 15.613 12.361 16.227 12.44 17.018 12.363 L 17.278 12.338 L 17.344 12.409 C 17.605 12.704 18.072 12.662 18.268 12.327 C 18.475 11.969 18.235 11.501 17.823 11.466 C 17.633 11.449 17.406 11.558 17.306 11.712 L 17.261 11.778 L 17.122 11.739 C 16.64 11.603 16.381 11.442 16.395 11.285 C 16.411 11.097 16.619 10.946 17.429 10.529 C 17.572 10.454 17.749 10.357 17.822 10.311 C 17.944 10.236 17.965 10.229 18.078 10.237 C 18.37 10.254 18.618 10.057 18.674 9.763 C 18.744 9.391 18.404 9.045 18.029 9.102 C 17.825 9.136 17.617 9.311 17.573 9.49 C 17.554 9.562 17.537 9.581 17.41 9.655 C 17.333 9.702 17.076 9.897 16.842 10.091 C 16.608 10.284 16.375 10.468 16.327 10.5 C 16.22 10.57 16.031 10.642 15.966 10.636 C 15.78 10.62 15.698 10.391 15.708 9.919 L 15.712 9.703 L 15.807 9.671 C 15.92 9.632 16.053 9.523 16.117 9.419 C 16.152 9.361 16.168 9.299 16.179 9.17 C 16.192 9.018 16.188 8.986 16.147 8.899 C 16.043 8.684 15.851 8.558 15.623 8.557 C 15.479 8.557 15.397 8.586 15.271 8.681 C 15.149 8.773 15.072 8.911 15.059 9.062 C 15.046 9.221 15.068 9.315 15.152 9.448 L 15.222 9.558 L 15.133 9.747 C 14.911 10.225 14.78 10.663 14.748 11.038 C 14.737 11.167 14.733 11.307 14.74 11.351 L 14.751 11.429 L 14.504 11.566 C 13.749 11.98 12.749 12.445 12.321 12.579 L 12.168 12.629 L 12.024 12.509 C 11.845 12.364 11.529 11.995 11.434 11.825 C 11.354 11.682 11.275 11.49 11.224 11.323 C 11.181 11.185 11.056 10.696 11.062 10.695 C 11.065 10.693 11.149 10.684 11.247 10.672 C 11.822 10.613 12.288 10.415 12.731 10.044 C 13.173 9.671 13.507 9.171 13.748 8.511 C 13.801 8.371 13.81 8.306 13.826 8.074 C 13.856 7.611 13.793 7.396 13.537 7.085 C 13.391 6.91 13.361 6.857 13.22 6.53 C 12.791 5.533 12.393 4.83 12.031 4.429 C 11.71 4.074 11.457 3.957 11.139 4.013 Z " fill="rgb(255,230,0)"/></g><path d=" M 20 2 L 20 8 L 26 8 L 26 30 L 6 30 L 6 2 L 20 2 Z  M 19 3 L 19 9 L 25 9 L 25 29 L 7 29 L 7 3 L 19 3 Z " fill-rule="evenodd" fill="rgb(255,230,0)"/></g></svg>