<?xml version="1.0" standalone="no"?><!-- Generator: Gravit.io --><svg xmlns="http://www.w3.org/2000/svg" xmlns:xlink="http://www.w3.org/1999/xlink" style="isolation:isolate" viewBox="0 0 32 32" width="32" height="32"><defs><clipPath id="_clipPath_s5mSNsACubpPNGjjLmj9Ozo5wZZNMz21"><rect width="32" height="32"/></clipPath></defs><g clip-path="url(#_clipPath_s5mSNsACubpPNGjjLmj9Ozo5wZZNMz21)"><path d=" M 2 2 L 2 30 L 5.963 30 L 30 30 L 30 2 L 2 2 Z " fill="rgb(0,0,0)"/><clipPath id="_clipPath_63ndWZGs1j8v5POPn5bBoapGivlSH8YV"><path d=" M 2 2 L 2 30 L 5.963 30 L 30 30 L 30 2 L 2 2 Z " fill="rgb(0,0,0)"/></clipPath><g clip-path="url(#_clipPath_63ndWZGs1j8v5POPn5bBoapGivlSH8YV)"><path d=" M 8.42 16.159 C 8.236 16.302 8.068 16.519 7.865 16.881 C 7.663 17.238 7.32 18.102 7.113 18.768 C 7.052 18.964 7.046 18.976 6.932 19.07 C 6.607 19.333 6.435 19.778 6.496 20.192 C 6.523 20.376 6.632 20.627 6.747 20.766 C 6.798 20.83 6.889 20.963 6.949 21.065 C 7.525 22.041 8.359 22.586 9.354 22.64 L 9.569 22.651 L 9.583 22.751 C 9.684 23.455 10.083 24.378 10.634 25.175 C 10.698 25.266 10.751 25.354 10.75 25.37 C 10.752 25.404 10.543 25.619 10.309 25.822 C 10.139 25.972 9.699 26.306 9.641 26.33 C 9.619 26.34 9.586 26.318 9.536 26.258 C 9.349 26.042 9.044 25.842 8.626 25.668 C 8.386 25.566 7.955 25.428 7.769 25.393 C 7.7 25.381 7.691 25.374 7.67 25.299 C 7.637 25.187 7.518 25.046 7.402 24.978 C 7.287 24.912 7.099 24.894 6.96 24.935 C 6.743 24.997 6.569 25.223 6.555 25.462 C 6.548 25.612 6.627 25.803 6.739 25.903 C 6.916 26.058 7.207 26.096 7.394 25.987 C 7.441 25.959 7.49 25.928 7.5 25.917 C 7.525 25.895 7.833 26.129 7.99 26.289 C 8.122 26.421 8.197 26.578 8.169 26.658 C 8.157 26.689 8.118 26.737 8.082 26.765 C 7.952 26.865 7.716 26.916 6.899 27.016 C 6.735 27.036 6.538 27.066 6.466 27.083 C 6.354 27.108 6.32 27.106 6.224 27.065 C 6.046 26.991 5.941 26.988 5.766 27.062 C 5.635 27.116 5.606 27.137 5.541 27.222 C 5.455 27.328 5.422 27.416 5.408 27.56 C 5.395 27.693 5.494 27.929 5.596 28.011 C 5.85 28.219 6.198 28.196 6.406 27.958 C 6.453 27.903 6.504 27.855 6.515 27.855 C 6.654 27.847 6.912 27.775 7.34 27.622 C 7.956 27.404 8.145 27.369 8.309 27.436 C 8.386 27.468 8.416 27.492 8.436 27.539 C 8.482 27.649 8.452 27.835 8.339 28.122 L 8.233 28.393 L 8.133 28.39 C 7.982 28.386 7.793 28.469 7.692 28.586 C 7.547 28.754 7.511 28.978 7.599 29.183 C 7.657 29.316 7.731 29.398 7.857 29.468 C 8.049 29.574 8.33 29.538 8.507 29.385 C 8.668 29.243 8.74 28.949 8.661 28.758 C 8.646 28.723 8.647 28.694 8.667 28.679 C 8.68 28.664 8.789 28.557 8.905 28.439 C 9.378 27.953 9.675 27.478 9.752 27.079 C 9.77 26.985 9.784 26.951 9.811 26.951 C 9.832 26.949 9.99 26.933 10.164 26.913 C 10.694 26.852 11.22 26.735 11.615 26.587 L 11.757 26.532 L 11.92 26.695 C 12.157 26.932 12.828 27.507 13.132 27.736 C 13.697 28.161 14.338 28.565 14.772 28.769 C 15.669 29.19 16.745 29.352 17.867 29.237 C 18.641 29.155 19.386 28.963 20.265 28.622 C 20.846 28.395 21.291 28.178 22.098 27.728 C 23.054 27.195 23.253 27.094 23.842 26.832 C 24.339 26.613 24.801 26.44 25.077 26.366 L 25.168 26.341 L 25.337 26.714 C 25.495 27.065 25.625 27.303 25.837 27.638 C 25.953 27.82 25.957 27.829 25.923 27.844 C 25.877 27.863 25.655 28.14 25.573 28.282 C 25.402 28.582 25.217 29.101 25.134 29.516 L 25.091 29.722 L 24.971 29.783 C 24.776 29.883 24.667 30.038 24.646 30.249 C 24.633 30.355 24.641 30.391 24.693 30.521 C 24.765 30.691 24.838 30.766 25.004 30.833 C 25.213 30.919 25.486 30.857 25.636 30.689 C 25.717 30.596 25.787 30.422 25.789 30.3 C 25.792 30.222 25.728 30.044 25.654 29.913 C 25.632 29.878 25.65 29.842 25.786 29.658 C 26.008 29.354 26.198 29.198 26.332 29.21 C 26.497 29.226 26.614 29.538 26.723 30.254 C 26.76 30.494 26.818 30.812 26.853 30.958 C 26.866 31.011 26.858 31.072 26.831 31.142 C 26.771 31.297 26.771 31.444 26.834 31.591 C 26.997 31.969 27.521 32.053 27.783 31.744 C 28.009 31.48 27.961 31.078 27.685 30.9 C 27.612 30.851 27.611 30.849 27.587 30.712 C 27.569 30.623 27.486 30.377 27.352 30.024 C 27.236 29.721 27.13 29.421 27.115 29.354 C 27.079 29.183 27.093 29.043 27.155 28.967 C 27.2 28.911 27.216 28.902 27.301 28.89 C 27.431 28.875 27.635 28.916 27.875 29.008 L 28.078 29.084 L 28.086 29.212 C 28.113 29.666 28.658 29.904 29.014 29.615 C 29.195 29.469 29.275 29.163 29.186 28.95 C 29.076 28.686 28.763 28.542 28.484 28.626 L 28.368 28.659 L 28.282 28.572 C 27.897 28.184 27.305 27.786 26.961 27.682 C 26.895 27.661 26.838 27.637 26.834 27.625 C 26.781 27.52 26.895 26.229 26.961 26.165 C 26.986 26.141 27.228 26.165 27.528 26.224 C 27.805 26.277 28.047 26.393 28.464 26.671 C 28.966 27.006 29.354 27.386 29.637 27.828 C 30.398 29.001 30.387 30.518 29.609 32.33 C 29.527 32.521 29.414 32.757 29.359 32.85 C 28.713 33.952 27.41 34.653 25.798 34.768 C 24.96 34.828 24.137 34.715 23.449 34.445 C 23.001 34.271 22.682 34.059 22.428 33.774 C 22.329 33.662 22.303 33.616 22.218 33.412 C 22.009 32.92 22.017 32.455 22.244 31.952 C 22.323 31.774 22.423 31.618 22.855 30.983 C 23.044 30.704 23.154 30.438 23.163 30.237 C 23.17 30.091 23.166 30.071 23.08 29.867 C 23.002 29.68 22.974 29.635 22.876 29.525 C 22.615 29.232 22.339 29.077 22.042 29.06 C 21.844 29.049 21.68 29.082 21.515 29.169 C 20.557 29.677 20.068 31.338 20.397 32.977 C 20.542 33.702 20.791 34.27 21.17 34.751 C 21.751 35.485 22.704 36.029 23.85 36.281 C 25.086 36.552 26.538 36.501 27.658 36.144 C 28.507 35.875 29.366 35.346 30.054 34.67 C 31.002 33.738 31.618 32.58 31.873 31.252 C 32.294 29.055 31.67 27.149 29.993 25.502 C 29.608 25.123 28.952 24.583 28.572 24.331 C 28.357 24.19 28.045 24.031 27.702 23.894 L 27.394 23.767 L 27.429 23.272 C 27.489 22.388 27.51 22.212 27.55 22.213 C 27.713 22.213 27.964 22.185 28.131 22.148 C 28.358 22.097 29.105 21.793 29.299 21.673 L 29.407 21.606 L 29.548 21.661 C 29.859 21.784 30.179 21.645 30.292 21.343 C 30.354 21.177 30.348 21.052 30.27 20.893 C 30.13 20.605 29.84 20.494 29.545 20.614 C 29.361 20.689 29.232 20.842 29.205 21.014 L 29.192 21.092 L 29.041 21.111 C 28.711 21.15 28.382 21.13 28.272 21.061 C 28.179 21.002 28.159 20.871 28.224 20.73 C 28.281 20.601 28.453 20.371 28.788 19.969 C 28.97 19.753 29.147 19.536 29.179 19.487 C 29.233 19.406 29.25 19.394 29.376 19.348 C 29.557 19.281 29.653 19.181 29.716 19.006 C 29.873 18.558 29.455 18.129 29.008 18.279 C 28.864 18.328 28.783 18.388 28.699 18.507 C 28.634 18.598 28.596 18.759 28.611 18.873 C 28.62 18.937 28.612 18.971 28.58 19.004 C 28.506 19.079 28.359 19.321 28.137 19.741 C 28.017 19.963 27.881 20.2 27.834 20.265 C 27.732 20.405 27.599 20.519 27.525 20.531 C 27.444 20.542 27.337 20.484 27.262 20.386 C 27.188 20.292 26.977 19.813 26.987 19.765 C 26.991 19.752 27.018 19.717 27.047 19.687 C 27.354 19.392 27.275 18.898 26.895 18.734 C 26.728 18.661 26.636 18.662 26.453 18.739 C 26.273 18.814 26.222 18.864 26.15 19.028 C 26.09 19.158 26.085 19.282 26.127 19.415 C 26.175 19.567 26.22 19.631 26.349 19.724 L 26.46 19.806 L 26.449 20.012 C 26.421 20.632 26.484 21.146 26.638 21.519 L 26.718 21.709 L 26.579 21.849 C 26.23 22.203 25.867 22.658 25.683 22.974 C 25.63 23.067 25.579 23.154 25.571 23.168 C 25.56 23.188 25.447 23.17 25.205 23.111 C 23.378 22.671 21.576 22.443 20.505 22.511 C 20.055 22.539 19.326 22.666 18.133 22.921 C 16.69 23.231 16.43 23.265 15.335 23.288 C 15.285 23.289 15.284 23.287 15.335 23.152 C 15.472 22.787 15.598 22.2 15.633 21.749 C 15.645 21.599 15.656 21.473 15.659 21.468 C 15.66 21.465 15.725 21.464 15.804 21.469 C 16.25 21.486 16.831 21.272 17.497 20.838 L 17.716 20.695 L 17.806 20.728 C 18.175 20.868 18.57 20.615 18.588 20.228 C 18.606 19.814 18.176 19.51 17.794 19.67 C 17.619 19.743 17.468 19.945 17.45 20.128 L 17.441 20.206 L 17.3 20.237 C 16.809 20.339 16.506 20.317 16.445 20.171 C 16.372 19.997 16.486 19.767 17.012 19.022 C 17.103 18.889 17.216 18.722 17.259 18.647 C 17.332 18.524 17.348 18.508 17.452 18.463 C 17.718 18.343 17.847 18.053 17.761 17.767 C 17.651 17.404 17.189 17.255 16.883 17.48 C 16.717 17.604 16.614 17.856 16.658 18.035 C 16.675 18.107 16.668 18.132 16.59 18.256 C 16.543 18.333 16.407 18.625 16.289 18.905 C 16.171 19.185 16.049 19.456 16.022 19.507 C 15.959 19.618 15.824 19.769 15.764 19.794 C 15.593 19.866 15.414 19.702 15.204 19.278 L 15.108 19.085 L 15.176 19.013 C 15.258 18.925 15.326 18.767 15.335 18.645 C 15.339 18.578 15.324 18.516 15.274 18.396 C 15.216 18.256 15.197 18.228 15.121 18.171 C 14.929 18.029 14.7 18.006 14.498 18.11 C 14.37 18.177 14.311 18.241 14.243 18.384 C 14.178 18.521 14.173 18.679 14.232 18.819 C 14.294 18.966 14.357 19.039 14.493 19.118 L 14.606 19.183 L 14.615 19.392 C 14.639 19.918 14.726 20.367 14.871 20.715 C 14.921 20.834 14.983 20.96 15.008 20.995 L 15.055 21.059 L 14.899 21.296 C 14.421 22.012 13.751 22.887 13.433 23.205 L 13.321 23.32 L 13.138 23.28 C 12.912 23.234 12.461 23.054 12.297 22.946 C 12.161 22.856 12.002 22.723 11.88 22.598 C 11.778 22.496 11.441 22.121 11.445 22.117 C 11.446 22.114 11.517 22.067 11.599 22.011 C 12.081 21.693 12.402 21.301 12.623 20.768 C 12.842 20.232 12.906 19.635 12.815 18.937 C 12.797 18.789 12.775 18.728 12.682 18.514 C 12.493 18.09 12.338 17.929 11.967 17.772 C 11.757 17.684 11.706 17.651 11.429 17.426 C 10.587 16.742 9.91 16.302 9.403 16.115 C 8.954 15.949 8.676 15.962 8.42 16.159 Z " fill="rgb(0,255,13)"/></g><path d=" M 30 2 L 30 30 L 2 30 L 2 2 L 30 2 Z  M 28 4 L 28 28 L 4 28 L 4 4 L 28 4 Z " fill-rule="evenodd" fill="rgb(0,255,13)"/><path d=" M 11.187 8.26 L 11.187 9.687 L 6.25 11.77 L 5.8 10.381 L 9.413 8.98 L 5.8 7.579 L 6.25 6.19 L 11.187 8.26 L 11.187 8.26 Z  M 11.817 14.393 L 11.817 13.017 L 18.04 13.017 L 18.04 14.393 L 11.817 14.393 L 11.817 14.393 Z " fill="rgb(0,255,13)"/></g></svg>